<svg width="181" height="72" viewBox="0 0 181 72" fill="none" xmlns="http://www.w3.org/2000/svg">
<g filter="url(#filter0_d)">
<path fill-rule="evenodd" clip-rule="evenodd" d="M155.459 40.5467C155.46 41.108 155.624 41.6577 155.934 42.1253L157.449 44.4179C157.708 44.8099 158.059 45.1313 158.471 45.3536C158.883 45.5759 159.343 45.6923 159.81 45.6923L161.329 45.6923C160.652 51.7846 153.149 56.6923 149.482 58.3846L149.42 58.5086L149.353 58.3846C149.115 58.5036 148.887 58.6028 148.669 58.6821C148.471 58.7614 148.252 58.8308 148.014 58.8903C147.776 58.9498 147.538 58.9796 147.3 58.9796C145.932 58.9796 144.494 58.5433 142.987 57.6707C141.48 56.7981 139.903 55.4396 138.257 53.5953C136.631 51.7707 134.935 49.4405 133.17 46.6046C131.405 43.7488 129.591 40.3477 127.727 36.4011C129.115 35.6872 130.265 34.9039 131.177 34.0511C132.09 33.1785 132.813 32.2861 133.349 31.3738C133.904 30.4417 134.291 29.5096 134.509 28.5775C134.747 27.6256 134.866 26.7133 134.866 25.8407C134.866 25.3648 134.767 24.7897 134.568 24.1154C134.39 23.4411 134.063 22.7966 133.587 22.1818C133.131 21.5472 132.526 21.0117 131.772 20.5754C131.019 20.1193 130.077 19.8912 128.946 19.8912C127.677 19.8912 126.507 20.1391 125.436 20.6349C124.365 21.1307 123.373 21.7653 122.461 22.5388C121.549 23.3122 120.696 24.1848 119.903 25.1566C119.11 26.1085 118.366 27.0505 117.672 27.9826V9.39033C117.672 8.95403 117.632 8.45824 117.553 7.90295C117.493 7.32783 117.295 6.79237 116.958 6.29658C116.621 5.78095 116.095 5.35457 115.381 5.01743C114.667 4.66046 113.666 4.48198 112.377 4.48198C111.544 4.48198 110.751 4.57122 109.997 4.7497C109.243 4.92819 108.529 5.15625 107.855 5.4339C107.201 5.71154 106.596 6.03877 106.041 6.41557C105.485 6.77254 104.98 7.13943 104.523 7.51623L105.118 8.23017C105.396 8.01202 105.654 7.85337 105.892 7.75421C106.15 7.63522 106.447 7.57573 106.784 7.57573C107.419 7.57573 107.865 7.79387 108.123 8.23017C108.401 8.64664 108.539 9.14243 108.539 9.71755V48.0919C108.539 48.3101 108.569 48.5977 108.629 48.9546C108.708 49.3116 108.886 49.6587 109.164 49.9958C109.462 50.3329 109.908 50.6205 110.503 50.8585C111.098 51.1163 111.921 51.2452 112.972 51.2452C114.023 51.2452 114.856 51.1262 115.471 50.8882C116.105 50.6701 116.581 50.4023 116.898 50.085C117.236 49.7677 117.444 49.4306 117.523 49.0736C117.622 48.7166 117.672 48.4093 117.672 48.1514V32.8017C118.029 31.9291 118.485 30.9673 119.04 29.9162C119.596 28.8453 120.21 27.8537 120.885 26.9414C121.579 26.0093 122.303 25.2359 123.056 24.6211C123.81 23.9865 124.553 23.6692 125.287 23.6692C125.664 23.6692 125.952 23.7386 126.15 23.8774C126.368 24.0162 126.527 24.1749 126.626 24.3534C126.745 24.5319 126.814 24.7203 126.834 24.9186C126.854 25.0971 126.864 25.226 126.864 25.3053C126.864 25.8407 126.794 26.4853 126.656 27.2389C126.517 27.9925 126.17 28.8552 125.614 29.8269C125.059 30.7987 124.236 31.8894 123.145 33.0992C122.055 34.2891 120.557 35.588 118.654 36.9961C120.062 40.3675 121.42 43.3125 122.729 45.8311C124.038 48.3498 125.307 50.5213 126.537 52.3459C127.786 54.1704 128.996 55.6776 130.166 56.8675C131.356 58.0574 132.526 59.0093 133.676 59.7233C134.826 60.4372 135.967 60.933 137.097 61.2106C138.247 61.4883 139.407 61.6271 140.578 61.6271C141.867 61.6271 142.977 61.5676 143.909 61.4486C144.841 61.3296 145.664 61.171 146.378 60.9727C147.092 60.7743 147.727 60.5364 148.282 60.2587C148.449 60.1814 148.614 60.1024 148.779 60.0215C157.49 56.6069 162.46 48.7781 163.021 45.6923L165.281 45.6923C165.748 45.6923 166.209 45.5759 166.621 45.3536C167.033 45.1313 167.384 44.8099 167.642 44.4179L169.157 42.1253C169.467 41.6577 169.632 41.1085 169.633 40.5467L169.636 37.1243H155.454L155.459 40.5467ZM146.943 15.7065C146.943 19.6661 148.401 23.2786 150.805 26.0388C152.269 27.721 154.56 31.2353 155.433 34.1999C155.435 34.2115 155.436 34.2231 155.438 34.2347C155.439 34.2463 155.441 34.2579 155.443 34.2695H161.994V31.855C161.839 31.7659 161.695 31.6507 161.568 31.5119L155.797 25.2125C154.033 23.2843 153.671 19.6463 156.146 17.4149C158.047 15.6982 160.986 15.9591 162.805 17.9437C164.625 15.9591 167.563 15.7017 169.465 17.4149C171.942 19.6499 171.574 23.2878 169.814 25.216L164.042 31.5154C163.888 31.6837 163.711 31.8164 163.517 31.91V34.2695H169.648C169.65 34.2555 169.652 34.2419 169.653 34.2281L169.657 34.1999C170.531 31.2353 172.821 27.721 174.286 26.0388C176.689 23.2786 178.147 19.6661 178.147 15.7065C178.147 7.0153 171.136 -0.0266962 162.496 7.60848e-05C153.453 0.0277408 146.943 7.40439 146.943 15.7065ZM162.917 30.3239L168.688 24.0245C169.879 22.7238 170.13 20.228 168.448 18.7087C167.175 17.5595 165.201 17.7251 163.957 19.0823L162.805 20.3408L161.654 19.0823C160.417 17.7322 158.442 17.5595 157.162 18.7122C155.478 20.2315 155.721 22.7132 156.922 24.0245L162.693 30.3239C162.772 30.4085 162.838 30.4085 162.917 30.3239ZM13.3636 22.4495C13.78 22.3305 14.2163 22.271 14.6725 22.271C15.6046 22.271 16.3681 22.4396 16.963 22.7767C17.558 23.0941 17.8555 23.5304 17.8555 24.0856C17.8555 24.2641 17.7464 24.4129 17.5282 24.5319C17.3299 24.631 17.1019 24.7599 16.844 24.9186C16.5862 25.0574 16.3483 25.2458 16.1301 25.4838C15.9318 25.7218 15.8326 26.049 15.8326 26.4654C15.8326 27.1001 16.0508 27.6058 16.4871 27.9826C16.9432 28.3395 17.5977 28.518 18.4504 28.518C19.3428 28.518 20.037 28.2404 20.5328 27.6851C21.0285 27.1298 21.2764 26.4754 21.2764 25.7218C21.2764 24.75 21.0583 23.8972 20.622 23.1635C20.2055 22.4297 19.6007 21.8248 18.8074 21.3489C18.034 20.8531 17.1019 20.4862 16.0111 20.2482C14.9204 20.0102 13.7106 19.8912 12.3819 19.8912C11.2317 19.8912 10.1112 20.0499 9.02043 20.3672C7.94952 20.6647 6.98768 21.1208 6.13492 21.7356C5.30198 22.3504 4.6277 23.1238 4.11208 24.0559C3.61629 24.988 3.36839 26.0787 3.36839 27.3281C3.36839 28.4387 3.61629 29.5096 4.11208 30.5409C4.60787 31.5721 5.23257 32.5736 5.98618 33.5454C6.73978 34.5171 7.55288 35.4591 8.42548 36.3714C9.29808 37.2837 10.1112 38.1662 10.8648 39.0189C11.6184 39.8717 12.2431 40.7046 12.7389 41.5177C13.2347 42.311 13.4826 43.0844 13.4826 43.838C13.4826 45.1866 13.0264 46.2079 12.1142 46.902C11.2019 47.5763 10.0319 47.9135 8.60397 47.9135C8.02885 47.9135 7.46364 47.8242 6.90835 47.6457C6.35306 47.4474 5.82752 47.1995 5.33173 46.902C4.85577 46.6046 4.41947 46.2873 4.02284 45.9501C3.6262 45.5932 3.29898 45.2659 3.04117 44.9685L2 45.7121C2.33714 46.2278 2.8131 46.8029 3.42788 47.4375C4.04267 48.0721 4.77644 48.677 5.62921 49.2521C6.5018 49.8074 7.49339 50.2834 8.60397 50.68C9.71454 51.0568 10.954 51.2452 12.3224 51.2452C13.8891 51.2452 15.3071 51.0469 16.5763 50.6502C17.8654 50.2338 18.9561 49.6388 19.8486 48.8654C20.7608 48.0919 21.4549 47.1499 21.9309 46.0394C22.4267 44.9288 22.6746 43.6596 22.6746 42.2317C22.6746 40.9624 22.387 39.7725 21.8119 38.662C21.2566 37.5514 20.5526 36.5102 19.6998 35.5385C18.8669 34.5469 17.9546 33.6148 16.963 32.7422C15.9913 31.8498 15.079 30.997 14.2263 30.1839C13.3933 29.351 12.6893 28.5577 12.1142 27.8041C11.5589 27.0307 11.2812 26.2572 11.2812 25.4838C11.2812 24.9285 11.3705 24.4525 11.549 24.0559C11.7275 23.6394 11.9754 23.3023 12.2927 23.0445C12.61 22.7668 12.9669 22.5685 13.3636 22.4495ZM26.4558 23.6394C26.7335 24.0559 26.8723 24.5517 26.8723 25.1268V62.8468C26.8723 63.0649 26.912 63.3425 26.9913 63.6797C27.0706 64.0367 27.2689 64.3837 27.5862 64.7209C27.9035 65.0778 28.3597 65.3753 28.9546 65.6133C29.5694 65.8711 30.4023 66 31.4534 66C32.5045 66 33.3275 65.881 33.9225 65.643C34.5373 65.4051 34.9934 65.1175 35.2909 64.7803C35.6082 64.463 35.8065 64.1259 35.8858 63.7689C35.9651 63.412 36.0048 63.1046 36.0048 62.8468V48.3299C36.2428 48.5481 36.5601 48.8257 36.9567 49.1629C37.3534 49.4802 37.8492 49.7975 38.4441 50.1148C39.0391 50.4321 39.7431 50.6998 40.5562 50.918C41.3891 51.1361 42.351 51.2452 43.4417 51.2452C44.7506 51.2452 46.0297 50.9576 47.2791 50.3825C48.5484 49.7876 49.6689 48.8456 50.6406 47.5565C51.6322 46.2674 52.4255 44.6115 53.0204 42.5886C53.6352 40.546 53.9426 38.0769 53.9426 35.1815C53.9426 32.6827 53.6947 30.4814 53.1989 28.5775C52.7031 26.6737 51.9892 25.0772 51.0571 23.7882C50.1448 22.4991 49.0442 21.5273 47.7551 20.8729C46.466 20.2185 45.0282 19.8912 43.4417 19.8912C42.6683 19.8912 41.9147 19.9805 41.1809 20.159C40.4669 20.3374 39.7827 20.5953 39.1283 20.9324C38.4937 21.2497 37.8987 21.6364 37.3434 22.0926C36.808 22.5487 36.3419 23.0544 35.9453 23.6097C35.9056 23.3122 35.7767 22.9552 35.5586 22.5388C35.3404 22.1025 35.0132 21.6959 34.5769 21.3191C34.1605 20.9225 33.6349 20.5853 33.0003 20.3077C32.3657 20.0301 31.6022 19.8912 30.7097 19.8912C29.8768 19.8912 29.0835 19.9805 28.3299 20.159C27.5763 20.3374 26.8723 20.5655 26.2178 20.8432C25.5634 21.1208 24.9486 21.448 24.3735 21.8248C23.8182 22.1818 23.3125 22.5487 22.8564 22.9255L23.4811 23.6692C23.7587 23.451 24.0165 23.2825 24.2545 23.1635C24.4925 23.0445 24.78 22.985 25.1172 22.985C25.7518 22.985 26.198 23.2031 26.4558 23.6394ZM36.213 44.909C36.0742 44.5123 36.0048 44.2347 36.0048 44.076V27.5066C36.0048 27.0901 36.1139 26.6538 36.332 26.1977C36.5502 25.7416 36.8278 25.335 37.165 24.9781C37.5219 24.6013 37.9186 24.2939 38.3549 24.0559C38.7912 23.7981 39.2275 23.6692 39.6638 23.6692C40.4174 23.6692 41.0916 23.8774 41.6866 24.2939C42.3014 24.6905 42.8269 25.345 43.2632 26.2572C43.6995 27.1496 44.0267 28.3296 44.2449 29.7972C44.4829 31.2647 44.6019 33.0595 44.6019 35.1815C44.6019 36.9069 44.5126 38.5331 44.3341 40.0601C44.1556 41.5673 43.8681 42.896 43.4715 44.0463C43.0748 45.1767 42.5691 46.079 41.9543 46.7533C41.3395 47.4078 40.5959 47.735 39.7233 47.735C39.049 47.735 38.4739 47.5763 37.9979 47.259C37.5418 46.9219 37.165 46.5451 36.8675 46.1286C36.57 45.7121 36.3519 45.3056 36.213 44.909ZM71.2888 35.36C71.2888 34.8642 71.1301 34.4874 70.8128 34.2296C70.4955 33.9718 70.0889 33.8428 69.5931 33.8428C68.899 33.8428 68.2347 34.0015 67.6001 34.3188C66.9853 34.6361 66.4399 35.1022 65.9639 35.7169C65.488 36.3317 65.1112 37.0953 64.8335 38.0075C64.5559 38.8999 64.4171 39.9411 64.4171 41.131C64.4171 42.2813 64.4964 43.2332 64.655 43.9868C64.8335 44.7404 65.0616 45.3453 65.3392 45.8014C65.6367 46.2377 65.9739 46.5451 66.3507 46.7236C66.7275 46.902 67.1241 46.9913 67.5406 46.9913C68.0562 46.9913 68.5421 46.8624 68.9982 46.6046C69.4543 46.3269 69.851 45.9799 70.1881 45.5634C70.5252 45.1469 70.793 44.6809 70.9913 44.1653C71.1896 43.6496 71.2888 43.134 71.2888 42.6184V35.36ZM66.5589 22.3305C65.8846 22.3305 65.2599 22.4099 64.6848 22.5685C64.1097 22.7272 63.6139 22.9255 63.1974 23.1635C62.7809 23.4014 62.4537 23.6692 62.2157 23.9667C61.9778 24.2443 61.8588 24.512 61.8588 24.7698C61.8588 25.0673 62.0075 25.2855 62.305 25.4243C62.6223 25.5433 62.9693 25.692 63.3461 25.8705C63.723 26.0292 64.0601 26.2671 64.3576 26.5844C64.6749 26.8819 64.8335 27.348 64.8335 27.9826C64.8335 28.399 64.7443 28.7858 64.5658 29.1427C64.4071 29.4799 64.1791 29.7873 63.8816 30.0649C63.604 30.3227 63.2668 30.531 62.8702 30.6896C62.4934 30.8284 62.0968 30.8978 61.6803 30.8978C60.5697 30.8978 59.6674 30.521 58.9733 29.7674C58.299 29.0138 57.9618 28.0123 57.9618 26.7629C57.9618 25.5532 58.2791 24.5219 58.9138 23.6692C59.5484 22.7966 60.3714 22.0826 61.3828 21.5273C62.4141 20.9721 63.5742 20.5655 64.8633 20.3077C66.1523 20.0301 67.4414 19.8912 68.7305 19.8912C70.2773 19.8912 71.7548 20.0598 73.1629 20.3969C74.5709 20.7341 75.8104 21.2695 76.8813 22.0033C77.9721 22.7371 78.8347 23.6692 79.4693 24.7996C80.1238 25.93 80.451 27.2984 80.451 28.9048V45.7121C80.451 45.8906 80.4609 46.0889 80.4808 46.3071C80.5006 46.5252 80.5502 46.7236 80.6295 46.902C80.7088 47.0805 80.8278 47.2293 80.9865 47.3483C81.1451 47.4673 81.3732 47.5267 81.6707 47.5267C82.0276 47.5267 82.3549 47.3978 82.6523 47.14C82.9697 46.8624 83.2473 46.5847 83.4853 46.3071L84.229 46.9318C83.9315 47.3483 83.5745 47.8044 83.1581 48.3002C82.7416 48.796 82.2359 49.262 81.6409 49.6983C81.046 50.1346 80.3519 50.5015 79.5586 50.799C78.7653 51.0965 77.863 51.2452 76.8516 51.2452C75.6022 51.2452 74.4916 50.8783 73.5198 50.1445C72.5481 49.3909 71.9135 48.2407 71.616 46.6938C70.9814 47.5466 70.317 48.2605 69.6229 48.8356C68.9486 49.4108 68.2545 49.8768 67.5406 50.2338C66.8266 50.5907 66.1028 50.8486 65.369 51.0072C64.655 51.1659 63.9312 51.2452 63.1974 51.2452C62.2455 51.2452 61.3233 51.0965 60.4309 50.799C59.5385 50.5015 58.7353 50.0355 58.0213 49.4008C57.3272 48.7464 56.762 47.9035 56.3257 46.8723C55.9093 45.841 55.701 44.5817 55.701 43.0944C55.701 41.2897 56.058 39.8122 56.7719 38.662C57.4859 37.5117 58.418 36.5499 59.5682 35.7764C60.7383 34.9832 62.0571 34.3089 63.5246 33.7536C65.012 33.1983 66.5291 32.6133 68.076 31.9985C69.2263 31.5424 70.0592 30.8681 70.5748 29.9757C71.1103 29.0634 71.378 28.1313 71.378 27.1794C71.378 25.7118 70.9417 24.5418 70.0691 23.6692C69.2163 22.7767 68.0463 22.3305 66.5589 22.3305ZM98.4516 23.0445C97.5989 23.9766 96.7957 25.0177 96.0421 26.168C96.0421 25.8705 96.0321 25.5135 96.0123 25.0971C95.9925 24.6608 95.9231 24.2145 95.8041 23.7584C95.7049 23.2825 95.5463 22.8164 95.3281 22.3603C95.11 21.9042 94.8026 21.4976 94.4059 21.1406C94.0291 20.7638 93.5333 20.4664 92.9186 20.2482C92.3236 20.0102 91.5998 19.8912 90.747 19.8912C89.9141 19.8912 89.1208 19.9805 88.3672 20.159C87.6136 20.3374 86.9096 20.5655 86.2551 20.8432C85.6007 21.1208 84.9859 21.448 84.4108 21.8248C83.8555 22.1818 83.3498 22.5487 82.8936 22.9255L83.5183 23.6692C83.796 23.451 84.0538 23.2825 84.2918 23.1635C84.5297 23.0445 84.8173 22.985 85.1544 22.985C85.7891 22.985 86.2353 23.2031 86.4931 23.6394C86.7707 24.0559 86.9096 24.5517 86.9096 25.1268V48.0919C86.9096 48.3101 86.9492 48.5977 87.0285 48.9546C87.1079 49.3116 87.3062 49.6587 87.6235 49.9958C87.9408 50.3329 88.3969 50.6205 88.9919 50.8585C89.6067 51.1163 90.4396 51.2452 91.4907 51.2452C92.5418 51.2452 93.3648 51.1262 93.9597 50.8882C94.5745 50.6701 95.0306 50.4023 95.3281 50.085C95.6454 49.7677 95.8437 49.4306 95.9231 49.0736C96.0024 48.7166 96.0421 48.4093 96.0421 48.1514V28.8453C96.4585 28.4883 96.9147 28.1115 97.4105 27.7148C97.9261 27.3182 98.4615 26.9513 99.0168 26.6142C99.5919 26.277 100.177 25.9994 100.772 25.7813C101.367 25.5433 101.972 25.4243 102.587 25.4243C103.419 25.4243 104.054 25.6325 104.49 26.049C104.927 26.4456 105.204 26.9513 105.323 27.5661H106.156C106.474 26.6737 106.682 25.9201 106.781 25.3053C106.9 24.6707 106.959 24.0162 106.959 23.3419C106.959 22.2512 106.672 21.4084 106.097 20.8134C105.522 20.1986 104.728 19.8912 103.717 19.8912C103.241 19.8912 102.765 19.9805 102.289 20.159C101.813 20.3374 101.347 20.5754 100.891 20.8729C100.455 21.1704 100.028 21.5075 99.6118 21.8843C99.1953 22.2611 98.8086 22.6478 98.4516 23.0445Z" fill="white"/>
</g>
<defs>
<filter id="filter0_d" x="0" y="0" width="180.147" height="72" filterUnits="userSpaceOnUse" color-interpolation-filters="sRGB">
<feFlood flood-opacity="0" result="BackgroundImageFix"/>
<feColorMatrix in="SourceAlpha" type="matrix" values="0 0 0 0 0 0 0 0 0 0 0 0 0 0 0 0 0 0 127 0"/>
<feOffset dy="4"/>
<feGaussianBlur stdDeviation="1"/>
<feColorMatrix type="matrix" values="0 0 0 0 0 0 0 0 0 0 0 0 0 0 0 0 0 0 0.1 0"/>
<feBlend mode="normal" in2="BackgroundImageFix" result="effect1_dropShadow"/>
<feBlend mode="normal" in="SourceGraphic" in2="effect1_dropShadow" result="shape"/>
</filter>
</defs>
</svg>
